<svg width="40" height="26" viewBox="0 0 40 26" fill="none" xmlns="http://www.w3.org/2000/svg">
<rect width="40" height="26" fill="#1E1E1E"/>
<path d="M-180 -149C-180 -150.105 -179.105 -151 -178 -151H1458C1459.1 -151 1460 -150.105 1460 -149V1071C1460 1072.1 1459.1 1073 1458 1073H-178C-179.105 1073 -180 1072.1 -180 1071V-149Z" fill="#121212"/>
<g clip-path="url(#clip0_0_1)">
<rect width="920" height="1024" transform="translate(-80 -51)" fill="black"/>
<rect x="27" y="-0.00012207" width="18.3846" height="18.3846" transform="rotate(45 27 -0.00012207)" fill="white" fill-opacity="0.2"/>
<rect x="13" y="-0.00012207" width="18.3846" height="18.3846" transform="rotate(45 13 -0.00012207)" fill="#B145CC"/>
</g>
<g clip-path="url(#clip1_0_1)">
<rect width="920" height="1024" transform="translate(-80 -51)" fill="black"/>
<rect x="27" y="-0.00012207" width="18.3846" height="18.3846" transform="rotate(45 27 -0.00012207)" fill="white" fill-opacity="0.2"/>
<rect x="13" y="-0.00012207" width="18.3846" height="18.3846" transform="rotate(45 13 -0.00012207)" fill="#B145CC"/>
</g>
<defs>
<clipPath id="clip0_0_1">
<rect width="1440" height="1024" fill="white" transform="translate(-80 -51)"/>
</clipPath>
<clipPath id="clip1_0_1">
<rect width="1440" height="1024" fill="white" transform="translate(-80 -51)"/>
</clipPath>
</defs>
</svg>
